<svg width="1024" height="1024" viewBox="0 0 1024 1024" fill="none" xmlns="http://www.w3.org/2000/svg">
<path d="M0 224V800C0 923.712 100.288 1024 224 1024H800C923.712 1024 1024 923.712 1024 800V224C1024 100.288 923.712 0 800 0H224C100.288 0 0 100.288 0 224Z" fill="#F0F2F5"/>
<path d="M312 762C284.386 762 262 739.614 262 712V312C262 284.386 284.386 262 312 262H712C739.614 262 762 284.386 762 312V712C762 739.614 739.614 762 712 762H312Z" fill="black"/>
<path d="M727 312H762V712H727V312ZM712 297H312C303.716 297 297 303.716 297 312V712C297 720.284 303.716 727 312 727H712C720.284 727 727 720.284 727 712H762C762 739.614 739.614 762 712 762H312C284.386 762 262 739.614 262 712V312C262 284.386 284.386 262 312 262H712C739.614 262 762 284.386 762 312H727C727 303.716 720.284 297 712 297Z" fill="black"/>
<path d="M262 182C306.183 182 342 217.817 342 262C342 306.183 306.183 342 262 342C217.817 342 182 306.183 182 262C182 217.817 217.817 182 262 182Z" fill="#5A97FF"/>
<path d="M762 682C806.183 682 842 717.817 842 762C842 806.183 806.183 842 762 842C717.817 842 682 806.183 682 762C682 717.817 717.817 682 762 682Z" fill="#5A97FF"/>
<path d="M842 262C842 306.183 806.183 342 762 342C717.817 342 682 306.183 682 262C682 217.817 717.817 182 762 182C806.183 182 842 217.817 842 262Z" fill="#5A97FF"/>
<path d="M342 762C342 806.183 306.183 842 262 842C217.817 842 182 806.183 182 762C182 717.817 217.817 682 262 682C306.183 682 342 717.817 342 762Z" fill="#5A97FF"/>
</svg>
