<svg width="631" height="96" viewBox="0 0 631 96" fill="none" xmlns="http://www.w3.org/2000/svg">
<path d="M562.248 12.52V1H630.472V12.52H602.696V93.544H590.152V12.52H562.248Z" fill="black"/>
<path d="M510.152 95.488C483.784 95.488 466.248 76.544 466.248 47.872C466.248 19.328 484.296 0 510.792 0C531.656 0 547.656 12.416 551.112 31.36H537.672C534.216 19.328 523.848 12.032 510.408 12.032C491.72 12.032 479.432 26.112 479.432 47.744C479.432 69.376 491.72 83.456 510.408 83.456C523.976 83.456 534.728 76.16 538.184 64.768H551.496C547.528 83.2 531.016 95.488 510.152 95.488Z" fill="black"/>
<path d="M455.544 93.544H399.096V1H455.544V12.52H411.64V41.448H451.192V52.584H411.64V81.896H455.544V93.544Z" fill="black"/>
<path d="M326.792 93.544H314.248V1H349.192C369.032 1 380.808 11.496 380.808 28.776C380.808 41.576 374.408 50.792 362.888 54.504L381.704 93.544H367.752L350.472 56.936H326.792V93.544ZM326.792 12.264V45.8H349.32C360.968 45.8 367.624 39.528 367.624 28.904C367.624 18.152 360.712 12.264 349.192 12.264H326.792Z" fill="black"/>
<path d="M245.469 1.45605V82.3521H286.173V94.0001H232.925V1.45605H245.469Z" fill="black"/>
<path d="M172.994 1.45605V82.3521H213.698V94.0001H160.45V1.45605H172.994Z" fill="black"/>
<path d="M132.269 1.45605V94.0001H119.725V1.45605H132.269Z" fill="black"/>
<path d="M12.288 94.0001H0V1.45605H12.288L44.16 79.2801L76.032 1.45605H88.576V94.0001H76.288V57.3921C76.288 40.1121 76.416 33.8401 77.056 27.3121L50.048 94.0001H38.272L11.392 27.5681C12.032 32.0481 12.288 41.5201 12.288 54.4481V94.0001Z" fill="black"/>
</svg>
